<svg xmlns="http://www.w3.org/2000/svg" xmlns:xlink="http://www.w3.org/1999/xlink" viewBox="0 0 40 40"><defs><style>.cls-1{fill:none;}.cls-2{clip-path:url(#clip-path);}.cls-3{fill:#fff;}.cls-4{fill:#50b373;}.cls-5{fill:#c7483d;}</style><clipPath id="clip-path"><circle class="cls-1" cx="20" cy="20" r="20"/></clipPath></defs><g id="Capa_2" data-name="Capa 2"><g id="Capa_1-2" data-name="Capa 1"><g class="cls-2"><rect class="cls-3" x="11.05" width="17.46" height="40"/><path class="cls-4" d="M11.48,20c0,6.4,0,12.79,0,19.19,0,.66-.1.81-.54.81-4.61,0-9.21,0-13.82,0-1.5,0-2.42-1.51-2.41-3.63,0-11,0-22,0-33C-5.26,1.31-4.42,0-3,0,1.67,0,6.36,0,11.05,0c.41,0,.44.24.44.74Q11.48,10.37,11.48,20Z"/><path class="cls-5" d="M28.52,20q0-9.59,0-19.18c0-.6.08-.78.51-.78,4.63,0,9.27,0,13.9,0,1.55,0,2.37,1.7,2.36,3.56,0,11,0,22,0,33,0,2.12-.85,3.39-2.28,3.39-4.67,0-9.34,0-14,0-.38,0-.46-.17-.46-.71Q28.53,29.63,28.52,20Z"/></g></g></g></svg>